<svg xmlns="http://www.w3.org/2000/svg" width="50" zoomAndPan="magnify" viewBox="0 0 37.5 37.499999" height="50" preserveAspectRatio="xMidYMid meet" version="1.0"><defs><clipPath id="f3414388c5"><path d="M 0 0 L 37.007812 0 L 37.007812 37.007812 L 0 37.007812 Z M 0 0 " clip-rule="nonzero"/></clipPath><clipPath id="a8705669af"><path d="M 0 1 L 37 1 L 37 36.367188 L 0 36.367188 Z M 0 1 " clip-rule="nonzero"/></clipPath><clipPath id="9bc6df10d0"><path d="M 0 0.839844 L 37.007812 0.839844 L 37.007812 36.367188 L 0 36.367188 Z M 0 0.839844 " clip-rule="nonzero"/></clipPath></defs><g clip-path="url(#f3414388c5)"><path fill="#ffffff" d="M 0 0 L 37.007812 0 L 37.007812 37.007812 L 0 37.007812 Z M 0 0 " fill-opacity="1" fill-rule="nonzero"/><path fill="#ffffff" d="M 0 0 L 37.007812 0 L 37.007812 37.007812 L 0 37.007812 Z M 0 0 " fill-opacity="1" fill-rule="nonzero"/></g><g clip-path="url(#a8705669af)"><path fill="#000000" d="M 18.558594 1.105469 L 12.40625 20.441406 L 13.652344 21.449219 L 18.398438 6.386719 L 20.839844 13.746094 L 22.652344 13.695312 Z M 20.039062 3.617188 L 20.550781 5.335938 C 25.5 5.976562 29.667969 9.125 31.757812 13.472656 L 33.605469 13.550781 C 31.328125 8.078125 26.171875 4.128906 20.039062 3.617188 Z M 17.15625 3.628906 C 10.902344 4.21875 5.6875 8.382812 3.546875 14.070312 L 5.328125 14.070312 C 7.292969 9.464844 11.539062 6.082031 16.640625 5.363281 Z M 36.945312 14.011719 L 16.527344 14.351562 L 16.078125 15.867188 L 32.207031 15.683594 L 25.445312 20.695312 L 25.863281 22.296875 Z M 13.671875 14.402344 L 0.3125 14.628906 L 16.859375 26.476562 L 18.261719 25.378906 L 5.414062 15.992188 L 13.222656 15.898438 Z M 23.480469 16.246094 L 21.6875 16.300781 L 26.742188 31.574219 L 20.441406 26.96875 L 18.949219 27.972656 L 29.835938 35.773438 Z M 34.496094 16.417969 L 33.003906 17.429688 C 33.132812 18.207031 33.199219 19.007812 33.199219 19.824219 C 33.199219 24.003906 31.453125 27.773438 28.652344 30.4375 L 29.144531 32.230469 C 32.632812 29.246094 34.851562 24.792969 34.851562 19.824219 C 34.851562 18.65625 34.730469 17.515625 34.496094 16.417969 Z M 2.757812 16.984375 C 2.597656 17.90625 2.511719 18.855469 2.511719 19.824219 C 2.511719 24.691406 4.636719 29.058594 8.003906 32.039062 L 8.53125 30.273438 C 5.832031 27.621094 4.15625 23.917969 4.15625 19.824219 C 4.15625 19.1875 4.195312 18.554688 4.273438 17.941406 Z M 23.167969 22.390625 L 10.363281 31.890625 L 12.777344 24.226562 L 11.480469 23.332031 L 7.421875 36.082031 L 23.617188 23.96875 Z M 24.957031 33.003906 C 23.058594 33.921875 20.925781 34.433594 18.679688 34.433594 C 16.441406 34.433594 14.316406 33.921875 12.417969 33.011719 L 10.875 34.074219 C 13.1875 35.359375 15.847656 36.09375 18.679688 36.09375 C 21.511719 36.09375 24.175781 35.359375 26.488281 34.074219 Z M 24.957031 33.003906 " fill-opacity="1" fill-rule="nonzero"/></g><g clip-path="url(#9bc6df10d0)"><path stroke-linecap="butt" transform="matrix(0.208723, 0, 0, 0.209953, 0.208723, 0.999645)" fill="none" stroke-linejoin="miter" d="M 87.914966 0.504035 L 58.43884 92.600477 L 64.408925 97.400655 L 87.147651 25.658457 L 98.844527 60.710921 L 107.528287 60.469052 Z M 95.007952 12.46727 L 97.459617 20.65362 C 121.171523 23.704896 141.140428 38.700802 151.152954 59.408547 L 160.005149 59.780654 C 149.094304 33.71457 124.390503 14.90457 95.007952 12.46727 Z M 81.196281 12.523086 C 51.233565 15.332493 26.249039 35.165787 15.993218 62.255164 L 24.527259 62.255164 C 33.940904 40.319467 54.28411 24.207241 78.725901 20.783858 Z M 176.006475 61.976084 L 78.183166 63.594749 L 76.030941 70.813622 L 153.305179 69.939171 L 120.909513 93.809824 L 122.912018 101.438014 Z M 64.5025 63.836619 L 0.497198 64.915728 L 79.773941 121.34573 L 86.492626 116.117629 L 24.938989 71.408993 L 62.350275 70.962464 Z M 111.495867 72.61834 L 102.905682 72.878815 L 127.122893 145.625701 L 96.935597 123.690003 L 89.786466 128.471576 L 141.945173 165.626443 Z M 164.272169 73.436975 L 157.123039 78.255758 C 157.740634 81.958221 158.058789 85.772317 158.058789 89.660833 C 158.058789 109.568549 149.693184 127.522703 136.274528 140.211547 L 138.632618 148.751398 C 155.345114 134.536917 165.975234 113.326828 165.975234 89.660833 C 165.975234 84.097836 165.395069 78.665076 164.272169 73.436975 Z M 12.212788 76.134749 C 11.445473 80.52561 11.033743 85.046708 11.033743 89.660833 C 11.033743 112.843089 21.214704 133.643861 37.347034 147.839737 L 39.873559 139.430122 C 26.941494 126.797095 18.912758 109.159231 18.912758 89.660833 C 18.912758 86.628162 19.099908 83.614097 19.474208 80.693058 Z M 109.998667 101.884543 L 48.650895 147.132734 L 60.216765 110.629053 L 54.003385 106.36843 L 34.558499 167.096265 L 112.150892 109.401101 Z M 118.570137 152.435256 C 109.474647 156.807511 99.256257 159.244811 88.495131 159.244811 C 77.771436 159.244811 67.590475 156.807511 58.494985 152.472467 L 51.10256 157.53312 C 62.18184 163.654277 74.926756 167.152081 88.495131 167.152081 C 102.063507 167.152081 114.827137 163.654277 125.906418 157.53312 Z M 118.570137 152.435256 " stroke="#000000" stroke-width="1" stroke-opacity="1" stroke-miterlimit="4"/></g></svg>
